<?xml version="1.0" encoding="UTF-8"?>
<svg version="1.1" xmlns="http://www.w3.org/2000/svg" width="225" height="225">
<path d="M0 0 C74.25 0 148.5 0 225 0 C225 74.25 225 148.5 225 225 C150.75 225 76.5 225 0 225 C0 150.75 0 76.5 0 0 Z " fill="#4485F4" transform="translate(0,0)"/>
<path d="M0 0 C74.25 0 148.5 0 225 0 C225 74.25 225 148.5 225 225 C150.75 225 76.5 225 0 225 C0 150.75 0 76.5 0 0 Z M51.72290039 21.26708984 C51.01121704 22.41491943 51.01121704 22.41491943 50.28515625 23.5859375 C49.45781982 24.89449707 49.45781982 24.89449707 48.61376953 26.22949219 C48.08122559 27.14375977 47.54868164 28.05802734 47 29 C46.46358887 29.91168945 45.92717773 30.82337891 45.37451172 31.76269531 C43.69115768 34.69733411 42.05958183 37.65608872 40.4375 40.625 C35.73892109 49.11923927 30.9729316 57.56383385 26.0625 65.9375 C21.24970817 74.14917163 16.4582245 82.37226615 11.70187378 90.61672974 C10.70483181 92.34495781 9.70703679 94.07275136 8.70922852 95.80053711 C8.10780029 96.84346924 7.50637207 97.88640137 6.88671875 98.9609375 C6.35264404 99.88696777 5.81856934 100.81299805 5.26831055 101.76708984 C3.41575834 105.02858021 2.8189897 106.93331042 2.75 110.6875 C2.72421875 111.51636719 2.6984375 112.34523438 2.671875 113.19921875 C3.42425477 119.62131751 7.18698227 125.38088349 10.3125 130.9375 C10.96001221 132.09596436 10.96001221 132.09596436 11.62060547 133.27783203 C15.78870405 140.69672565 20.08330717 148.04124127 24.38818359 155.38134766 C27.69494516 161.02575517 30.97271608 166.68495604 34.20703125 172.37109375 C34.56025452 172.99171692 34.91347778 173.61234009 35.27740479 174.25177002 C36.99113901 177.26442117 38.70129667 180.27903402 40.40673828 183.29638672 C42.25096234 186.54307333 44.12088646 189.77340735 46 193 C46.57637207 194.02013184 47.15274414 195.04026367 47.74658203 196.09130859 C48.31618652 197.05504395 48.88579102 198.0187793 49.47265625 199.01171875 C49.9612915 199.85565186 50.44992676 200.69958496 50.95336914 201.5690918 C54.25210274 205.48719874 58.23095083 208.45116286 63.33664036 209.4631319 C65.95120737 209.63971732 68.52420104 209.66468081 71.14453125 209.63110352 C72.12771332 209.63825882 73.11089539 209.64541412 74.12387085 209.65278625 C77.35389549 209.66960979 80.58251975 209.65030696 83.8125 209.62890625 C86.06876744 209.62973553 88.32503481 209.63219712 90.58129883 209.63621521 C95.30210631 209.63906889 100.02243823 209.62441335 104.74316406 209.59692383 C110.78237937 209.56284248 116.82074461 209.56886374 122.86000061 209.5875864 C127.51671381 209.5981748 132.17323058 209.58920173 136.82992554 209.57420158 C139.05617692 209.56903286 141.28244893 209.5694856 143.50869751 209.57574654 C146.62473382 209.58122081 149.7395694 209.56075172 152.85546875 209.53344727 C153.76791351 209.53997314 154.68035828 209.54649902 155.62045288 209.55322266 C161.55472936 209.46518228 166.02777836 208.32623561 171 205 C173.13407531 202.91633205 173.13407531 202.91633205 174.58984375 200.4765625 C175.15944824 199.59516602 175.72905273 198.71376953 176.31591797 197.80566406 C179.17049267 193.04997075 181.90315552 188.24242264 184.5625 183.375 C189.26108865 174.88074312 194.02767197 166.43653094 198.9375 158.0625 C199.50243164 157.09715332 200.06736328 156.13180664 200.64941406 155.13720703 C201.81445885 153.14678544 202.97982861 151.15655402 204.14550781 149.16650391 C204.75749023 148.12155762 205.36947266 147.07661133 206 146 C206.50098206 145.14459625 206.50098206 145.14459625 207.01208496 144.27191162 C209.11332082 140.68239236 211.20892432 137.08967071 213.29812622 133.49313354 C214.29208733 131.78507781 215.2913753 130.08012547 216.29077148 128.37524414 C216.89219971 127.33875732 217.49362793 126.30227051 218.11328125 125.234375 C218.64735596 124.31881836 219.18143066 123.40326172 219.73168945 122.45996094 C222.43941451 117.20817313 222.64345939 111.81748782 222 106 C220.99612373 103.04041389 219.51762648 100.52433703 217.875 97.875 C217.42979004 97.11622559 216.98458008 96.35745117 216.52587891 95.57568359 C215.5510355 93.91815066 214.56675568 92.26613957 213.57421875 90.61914062 C211.37827769 86.96559602 209.24234216 83.27805383 207.10107422 79.59228516 C205.33723866 76.56008467 203.56319683 73.53399649 201.7890625 70.5078125 C198.42117729 64.74514367 195.11540442 58.94897507 191.82080078 53.14428711 C188.56922017 47.41684727 185.2861899 41.70764034 182 36 C181.48888672 35.10555176 180.97777344 34.21110352 180.45117188 33.28955078 C179.15430949 31.03447123 177.83350731 28.79604467 176.5 26.5625 C176.15163086 25.94890625 175.80326172 25.3353125 175.44433594 24.703125 C172.37843699 19.68462625 167.7927939 16.11623342 162.12973976 14.44957542 C160.00434361 14.00091691 158.11108829 13.86358708 155.94174194 13.84609985 C154.74353317 13.83319916 154.74353317 13.83319916 153.52111816 13.82003784 C152.65353882 13.81577789 151.78595947 13.81151794 150.89208984 13.80712891 C149.97122589 13.79895142 149.05036194 13.79077393 148.10159302 13.78234863 C145.05471437 13.75754249 142.00788225 13.7409889 138.9609375 13.7265625 C137.91796131 13.72123882 136.87498512 13.71591515 135.80040359 13.71043015 C130.27758774 13.68371662 124.75479433 13.66433778 119.23193359 13.64990234 C114.67118213 13.63657584 110.11087941 13.60874389 105.55029297 13.56787109 C100.03429421 13.51844057 94.51870177 13.49376826 89.002491 13.48667526 C86.90623158 13.47998061 84.80998059 13.46480539 82.71384811 13.44078445 C65.80149067 12.90907147 65.80149067 12.90907147 51.72290039 21.26708984 Z " fill="#FEFEFE" transform="translate(0,0)"/>
<path d="M0 0 C6.49283169 5.36705845 12.45811562 11.24056222 18.4375 17.1640625 C18.97292419 17.69416302 19.50834839 18.22426353 20.05999756 18.7704277 C22.88252819 21.56642633 25.70150959 24.36595329 28.51806641 27.16796875 C30.84682067 29.48329089 33.18266869 31.79108952 35.52490234 34.09277344 C38.36450976 36.88324796 41.19181787 39.68562736 44.01052856 42.49720383 C45.0844516 43.5644 46.16263607 44.6273254 47.24508667 45.68587112 C48.75081943 47.16017313 50.24020675 48.64926693 51.7265625 50.14306641 C53.00394287 51.4083165 53.00394287 51.4083165 54.30712891 52.6991272 C56 55 56 55 55.83488464 57.16702271 C54.83097438 59.37109333 53.75094308 61.47284918 52.55078125 63.578125 C52.03902344 64.48046875 51.52726563 65.3828125 51 66.3125 C50.443125 67.281875 49.88625 68.25125 49.3125 69.25 C48.73886719 70.25546875 48.16523438 71.2609375 47.57421875 72.296875 C45.72268707 75.53505162 43.86235056 78.76803484 42 82 C41.3714209 83.09376953 40.7428418 84.18753906 40.09521484 85.31445312 C38.23559649 88.54615662 36.3693705 91.77392918 34.5 95 C33.92548096 95.99547852 33.35096191 96.99095703 32.7590332 98.01660156 C31.19885765 100.69458651 29.61010593 103.35179945 28 106 C27.59265625 106.69222656 27.1853125 107.38445312 26.765625 108.09765625 C23.74330609 112.84269694 20.29252411 115.13717619 15 117 C11.62340965 117.51838551 8.32281581 117.50822171 4.91210938 117.45410156 C3.44732147 117.45497772 3.44732147 117.45497772 1.95294189 117.45587158 C-1.25049324 117.4531017 -4.45297893 117.42206107 -7.65625 117.390625 C-9.88683565 117.38315873 -12.11742789 117.37746762 -14.34802246 117.37347412 C-20.20070712 117.35824833 -26.05299069 117.3189925 -31.90551758 117.2746582 C-37.8848732 117.23363973 -43.86429404 117.21544905 -49.84375 117.1953125 C-61.5626756 117.15249557 -73.28130436 117.08428104 -85 117 C-85 116.67 -85 116.34 -85 116 C-41.44 115.505 -41.44 115.505 3 115 C-15.81 96.19 -34.62 77.38 -54 58 C-53.67 57.34 -53.34 56.68 -53 56 C-52.17757812 56.2165625 -51.35515625 56.433125 -50.5078125 56.65625 C-39.09345455 59.50324921 -28.67147421 60.77511391 -17.95703125 54.875 C-17.35246094 54.50375 -16.74789062 54.1325 -16.125 53.75 C-13 52 -13 52 -10.99584961 52.20458984 C-8.68396845 53.12594872 -7.60152005 54.13452959 -5.94140625 55.9765625 C-5.39033203 56.564375 -4.83925781 57.1521875 -4.27148438 57.7578125 C-3.13003784 59.00492437 -1.99461743 60.25757805 -0.86523438 61.515625 C0.69373145 63.16736475 2.15935974 64.66837488 4 66 C6.77039057 66.22157849 6.77039057 66.22157849 9 65 C9.99 64.01 9.99 64.01 11 63 C10.68096681 59.56830878 9.25516924 57.89692142 6.83984375 55.546875 C6.21142578 54.928125 5.58300781 54.309375 4.93554688 53.671875 C4.27619141 53.03765625 3.61683594 52.4034375 2.9375 51.75 C2.27427734 51.1003125 1.61105469 50.450625 0.92773438 49.78125 C-0.70829317 48.1805324 -2.35090912 46.58723807 -4 45 C-3.57847656 44.09636719 -3.15695313 43.19273437 -2.72265625 42.26171875 C-2.17480469 41.08222656 -1.62695312 39.90273437 -1.0625 38.6875 C-0.51722656 37.51574219 0.02804688 36.34398437 0.58984375 35.13671875 C2.87257912 30.05905532 3.21447521 25.80552113 3.25 20.3125 C3.270625 19.53455078 3.29125 18.75660156 3.3125 17.95507812 C3.35039158 12.27607735 2.15745498 8.24034459 0 3 C0 2.01 0 1.02 0 0 Z " fill="#407BDD" transform="translate(148,92)"/>
<path d="M0 0 C10.53698605 6.63439862 16.67258132 14.83024395 20.6328125 26.7109375 C21.42939358 37.80617394 21.04237147 46.7114497 15.6328125 56.7109375 C14.96312138 58.04275431 14.29595511 59.37584795 13.6328125 60.7109375 C14.09244385 61.14438477 14.5520752 61.57783203 15.02563477 62.02441406 C17.09512101 63.9901502 19.14517484 65.97503871 21.1953125 67.9609375 C21.91912109 68.64285156 22.64292969 69.32476562 23.38867188 70.02734375 C24.06865234 70.69121094 24.74863281 71.35507813 25.44921875 72.0390625 C26.08287354 72.6465332 26.71652832 73.25400391 27.36938477 73.87988281 C28.6328125 75.7109375 28.6328125 75.7109375 28.40991211 77.82714844 C27.45675098 80.13773319 26.71342484 81.29909341 24.6328125 82.7109375 C21.88408963 82.69629066 20.17988002 82.17453228 18.07275391 80.38891602 C15.76739633 78.05078248 13.56288552 75.63086399 11.36132812 73.1953125 C10.81025391 72.61007813 10.25917969 72.02484375 9.69140625 71.421875 C9.19954834 70.87837402 8.70769043 70.33487305 8.20092773 69.77490234 C6.6642464 68.47977462 6.6642464 68.47977462 4.60546875 68.96923828 C1.10027879 70.287155 -2.23768976 71.93966181 -5.61328125 73.5546875 C-13.93606649 77.04907676 -23.90946537 76.63320694 -32.3671875 73.7109375 C-44.67753426 68.34941112 -52.44217915 60.35761296 -57.4765625 47.984375 C-59.941861 38.92332174 -59.7880725 27.28383589 -55.62109375 18.8046875 C-49.34579933 8.32631426 -41.55578323 0.60734444 -29.8359375 -3.4453125 C-19.67042616 -5.91800445 -9.21582378 -5.0185179 0 0 Z " fill="#3F7CE2" transform="translate(131.3671875,76.2890625)"/>
<path d="M0 0 C10.53698605 6.63439862 16.67258132 14.83024395 20.6328125 26.7109375 C21.42939358 37.80617394 21.04237147 46.7114497 15.6328125 56.7109375 C14.96312138 58.04275431 14.29595511 59.37584795 13.6328125 60.7109375 C14.09244385 61.14438477 14.5520752 61.57783203 15.02563477 62.02441406 C17.09512101 63.9901502 19.14517484 65.97503871 21.1953125 67.9609375 C21.91912109 68.64285156 22.64292969 69.32476562 23.38867188 70.02734375 C24.06865234 70.69121094 24.74863281 71.35507813 25.44921875 72.0390625 C26.08287354 72.6465332 26.71652832 73.25400391 27.36938477 73.87988281 C28.6328125 75.7109375 28.6328125 75.7109375 28.40991211 77.82714844 C27.45675098 80.13773319 26.71342484 81.29909341 24.6328125 82.7109375 C21.88408963 82.69629066 20.17988002 82.17453228 18.07275391 80.38891602 C15.76739633 78.05078248 13.56288552 75.63086399 11.36132812 73.1953125 C10.81025391 72.61007813 10.25917969 72.02484375 9.69140625 71.421875 C9.19954834 70.87837402 8.70769043 70.33487305 8.20092773 69.77490234 C6.6642464 68.47977462 6.6642464 68.47977462 4.60546875 68.96923828 C1.10027879 70.287155 -2.23768976 71.93966181 -5.61328125 73.5546875 C-13.93606649 77.04907676 -23.90946537 76.63320694 -32.3671875 73.7109375 C-44.67753426 68.34941112 -52.44217915 60.35761296 -57.4765625 47.984375 C-59.941861 38.92332174 -59.7880725 27.28383589 -55.62109375 18.8046875 C-49.34579933 8.32631426 -41.55578323 0.60734444 -29.8359375 -3.4453125 C-19.67042616 -5.91800445 -9.21582378 -5.0185179 0 0 Z M-36.3671875 10.7109375 C-37.7284375 11.54625 -37.7284375 11.54625 -39.1171875 12.3984375 C-46.05083383 19.52468512 -48.6796875 27.03469192 -48.6796875 36.80688477 C-48.50350928 45.15833316 -46.30224534 50.98681048 -40.6171875 57.0859375 C-33.61497281 63.54049294 -26.27566419 66.11366548 -16.8203125 65.91015625 C-7.03819388 65.11574853 -0.91220769 60.902084 5.6328125 53.7109375 C11.41941914 45.87840662 11.57502321 37.09609516 10.6328125 27.7109375 C7.73219256 18.05696579 2.27571446 12.58248204 -6.23046875 7.625 C-16.19858766 2.97178818 -27.47506983 4.8792045 -36.3671875 10.7109375 Z " fill="#F9FAFE" transform="translate(131.3671875,76.2890625)"/>
<path d="M0 0 C0.99 0.99 1.98 1.98 3 3 C2.57291748 3.69335449 2.14583496 4.38670898 1.70581055 5.10107422 C-0.30061263 8.35885272 -2.3066348 11.61687794 -4.3125 14.875 C-4.67592499 15.46523956 -5.03934998 16.05547913 -5.41378784 16.66360474 C-9.97901181 24.0787383 -14.5315204 31.50137728 -19.0625 38.9375 C-27.22507271 52.31709315 -27.22507271 52.31709315 -31 58 C-31.43420918 58.69471279 -31.86841837 59.38942558 -32.31578541 60.10519028 C-34 62 -34 62 -36.02458477 62.49219131 C-36.80349984 62.48850414 -37.58241491 62.48481697 -38.38493347 62.48101807 C-39.28095779 62.48651672 -40.17698212 62.49201538 -41.10015869 62.49768066 C-42.08055115 62.48329956 -43.0609436 62.46891846 -44.07104492 62.45410156 C-45.62251976 62.45497772 -45.62251976 62.45497772 -47.20533752 62.45587158 C-50.63072038 62.45308056 -54.05523755 62.42193945 -57.48046875 62.390625 C-59.85272242 62.38316626 -62.22498224 62.3774716 -64.59724426 62.37347412 C-70.846191 62.35818903 -77.09476686 62.31888198 -83.34356689 62.2746582 C-89.71792584 62.23376773 -96.09234462 62.21547639 -102.46679688 62.1953125 C-114.97802297 62.15239092 -127.48899178 62.08487152 -140 62 C-140 61.67 -140 61.34 -140 61 C-138.77748535 60.99635437 -137.5549707 60.99270874 -136.29541016 60.98895264 C-124.76028578 60.95197134 -113.22542759 60.89416404 -101.69050598 60.81609726 C-95.76061922 60.77663038 -89.83088079 60.74443784 -83.90087891 60.72900391 C-78.17540163 60.71383242 -72.45033217 60.67937734 -66.72503662 60.63169098 C-64.54347279 60.6168824 -62.36185074 60.60895929 -60.18023682 60.60811615 C-57.1184163 60.60574325 -54.05771981 60.57863636 -50.99609375 60.54589844 C-49.65065239 60.55344398 -49.65065239 60.55344398 -48.2780304 60.56114197 C-42.40776886 60.46437422 -37.90302536 59.32882442 -33 56 C-30.89475823 53.72160092 -30.89475823 53.72160092 -29.4375 50.875 C-28.78394531 49.73289063 -28.13039063 48.59078125 -27.45703125 47.4140625 C-27.08271973 46.73891602 -26.7084082 46.06376953 -26.32275391 45.36816406 C-24.74789846 42.54865541 -23.13130401 39.75499165 -21.51171875 36.9609375 C-18.90663803 32.46589626 -16.31043958 27.96595905 -13.72265625 23.4609375 C-9.20537469 15.60690915 -4.61511507 7.79682969 0 0 Z " fill="#D3DCEE" transform="translate(204,148)"/>
<path d="M0 0 C2.64 0 5.28 0 8 0 C8 11.22 8 22.44 8 34 C5.69 34 3.38 34 1 34 C0 33 0 33 -0.11352539 29.85717773 C-0.11336633 28.46597303 -0.10767506 27.07476239 -0.09765625 25.68359375 C-0.0962413 24.95253922 -0.09482635 24.22148468 -0.09336853 23.46827698 C-0.08775408 21.12464368 -0.07519922 18.78110461 -0.0625 16.4375 C-0.05748686 14.85221492 -0.05292363 13.26692834 -0.04882812 11.68164062 C-0.03777997 7.7877239 -0.02050572 3.89387795 0 0 Z " fill="#F2F5FC" transform="translate(108,100)"/>
<path d="M0 0 C2.31 0 4.62 0 7 0 C7 6.6 7 13.2 7 20 C2 17 2 17 0 14 C-0.1953125 10.64453125 -0.1953125 10.64453125 -0.125 6.8125 C-0.10695313 5.54019531 -0.08890625 4.26789063 -0.0703125 2.95703125 C-0.04710938 1.98121094 -0.02390625 1.00539063 0 0 Z " fill="#F9FAFD" transform="translate(94,110)"/>
<path d="M0 0 C2.64 0 5.28 0 8 0 C8.48801743 7.19825708 8.48801743 7.19825708 6.25 10.875 C4 13 4 13 0 15 C0 10.05 0 5.1 0 0 Z " fill="#F0F4FC" transform="translate(124,115)"/>
</svg>
