<?xml version="1.0" encoding="UTF-8"?>
<svg version="1.1" xmlns="http://www.w3.org/2000/svg" width="56" height="56">
<path d="M0 0 C18.48 0 36.96 0 56 0 C56 18.48 56 36.96 56 56 C37.52 56 19.04 56 0 56 C0 37.52 0 19.04 0 0 Z " fill="#FAFDFE" transform="translate(0,0)"/>
<path d="M0 0 C3.99496002 0.43468477 6.55106513 1.77462777 9.8125 4.0625 C10.60269531 4.61035156 11.39289062 5.15820312 12.20703125 5.72265625 C12.79871094 6.14417969 13.39039063 6.56570312 14 7 C13.67 8.32 13.34 9.64 13 11 C8.25 10.125 8.25 10.125 6 9 C5.34 11.31 4.68 13.62 4 16 C2.35 15.67 0.7 15.34 -1 15 C-1.02685412 12.68756208 -1.04632841 10.3750373 -1.0625 8.0625 C-1.07410156 6.77472656 -1.08570312 5.48695312 -1.09765625 4.16015625 C-1 1 -1 1 0 0 Z " fill="#27B5E6" transform="translate(31,34)"/>
<path d="M0 0 C1.67542976 0.28604898 3.34385343 0.61781233 5 1 C5 3.31 5 5.62 5 8 C5.7425 7.484375 6.485 6.96875 7.25 6.4375 C10 5 10 5 12.3125 5.3125 C12.869375 5.539375 13.42625 5.76625 14 6 C13.67300016 8.9429986 13.19941672 9.83835986 10.85546875 11.73828125 C9.53482422 12.51751953 9.53482422 12.51751953 8.1875 13.3125 C7.31480469 13.84488281 6.44210938 14.37726562 5.54296875 14.92578125 C2.76353318 16.09988998 1.75064575 16.09641124 -1 15 C-1.02685412 12.68756208 -1.04632841 10.3750373 -1.0625 8.0625 C-1.07410156 6.77472656 -1.08570312 5.48695312 -1.09765625 4.16015625 C-1 1 -1 1 0 0 Z " fill="#26B5E6" transform="translate(31,6)"/>
<path d="M0 0 C-0.1875 1.875 -0.1875 1.875 -1 4 C-3.5625 5.25 -3.5625 5.25 -6 6 C-6 6.66 -6 7.32 -6 8 C-5.195625 8.2475 -4.39125 8.495 -3.5625 8.75 C-1 10 -1 10 -0.1875 12.125 C-0.125625 12.74375 -0.06375 13.3625 0 14 C-3.03647116 14.92226744 -4.50144675 15.21796843 -7.45703125 13.92578125 C-8.23433594 13.39339844 -9.01164062 12.86101563 -9.8125 12.3125 C-10.60269531 11.79300781 -11.39289062 11.27351563 -12.20703125 10.73828125 C-12.79871094 10.16464844 -13.39039063 9.59101563 -14 9 C-14 7.68 -14 6.36 -14 5 C-11.953125 3.26171875 -11.953125 3.26171875 -9.25 1.6875 C-7.92742188 0.88892578 -7.92742188 0.88892578 -6.578125 0.07421875 C-3.7796254 -1.09182275 -2.76252617 -1.10371957 0 0 Z " fill="#20B3E6" transform="translate(50,21)"/>
<path d="M0 0 C5.15464734 0.48324819 8.81550319 3.18610761 13 6 C12.69121427 9.1087919 12.51628935 10.56644261 10.07421875 12.6171875 C9.28660156 13.03226563 8.49898437 13.44734375 7.6875 13.875 C6.90761719 14.30554687 6.12773437 14.73609375 5.32421875 15.1796875 C2.71322242 16.10121562 1.55649118 15.94771526 -1 15 C-0.6875 13.125 -0.6875 13.125 0 11 C0.99 10.34 1.98 9.68 3 9 C3 8.34 3 7.68 3 7 C1.68 6.34 0.36 5.68 -1 5 C-0.67 3.35 -0.34 1.7 0 0 Z " fill="#1EB3E6" transform="translate(7,20)"/>
<path d="M0 0 C1.32 0 2.64 0 4 0 C4 4.95 4 9.9 4 15 C0 16 0 16 -2.578125 14.78515625 C-3.45984375 14.21667969 -4.3415625 13.64820313 -5.25 13.0625 C-6.14203125 12.49660156 -7.0340625 11.93070313 -7.953125 11.34765625 C-8.62859375 10.90292969 -9.3040625 10.45820313 -10 10 C-9.67 8.35 -9.34 6.7 -9 5 C-6.07120629 5.62759865 -3.63904371 6.58622659 -1 8 C-1.020625 6.865625 -1.04125 5.73125 -1.0625 4.5625 C-1 1 -1 1 0 0 Z " fill="#1DB2E5" transform="translate(21,6)"/>
<path d="M0 0 C0 4.95 0 9.9 0 15 C-1.65 14.67 -3.3 14.34 -5 14 C-5 11.69 -5 9.38 -5 7 C-5.7425 7.515625 -6.485 8.03125 -7.25 8.5625 C-10 10 -10 10 -12.3125 9.6875 C-12.869375 9.460625 -13.42625 9.23375 -14 9 C-14 7.68 -14 6.36 -14 5 C-11.953125 3.26171875 -11.953125 3.26171875 -9.25 1.6875 C-7.92742188 0.88892578 -7.92742188 0.88892578 -6.578125 0.07421875 C-4 -1 -4 -1 0 0 Z " fill="#1BB2E5" transform="translate(25,35)"/>
<path d="M0 0 C3.29279709 0.31865778 4.86535088 1.54515351 7 4 C5.84826645 6.46800047 4.95216435 8.04783565 3 10 C0.06546739 9.63318342 -0.86437246 9.13562754 -3 7 C-2.67028521 3.70285207 -2.3773161 2.3773161 0 0 Z " fill="#57C5EB" transform="translate(26,23)"/>
<path d="M0 0 C2.62187494 1.04874998 3.79371361 1.64931313 5.25 4.125 C5.4975 4.74375 5.745 5.3625 6 6 C4.68 6.99 3.36 7.98 2 9 C1.34 8.34 0.68 7.68 0 7 C0.66 6.67 1.32 6.34 2 6 C2 5.34 2 4.68 2 4 C1.34 3.67 0.68 3.34 0 3 C0 2.01 0 1.02 0 0 Z " fill="#0BAFE4" transform="translate(27,23)"/>
<path d="M0 0 C1.98 0.495 1.98 0.495 4 1 C3.34 2.32 2.68 3.64 2 5 C1.01 4.67 0.02 4.34 -1 4 C-0.67 2.68 -0.34 1.36 0 0 Z " fill="#AFDEF4" transform="translate(49,9)"/>
</svg>
