<?xml version="1.0" encoding="UTF-8"?>
<svg version="1.1" xmlns="http://www.w3.org/2000/svg" width="288" height="418">
<path d="M0 0 C9.9 0 19.8 0 30 0 C29.84176758 2.81047852 29.68353516 5.62095703 29.52050781 8.51660156 C29.01678812 17.96066353 28.72395955 27.40361329 28.52591324 36.8587532 C28.39999513 42.57759843 28.21058267 48.27716716 27.85693359 53.98681641 C26.49426011 76.8065286 26.66186778 99.27197693 41.92256165 117.70985413 C56.06125757 133.25392087 72.16544725 137.22275558 92.31467414 138.37275004 C108.34422614 139.11487437 124.38339651 138.64600363 140.40871739 138.03838944 C149.75950334 137.69095975 159.11007937 137.55788593 168.46611166 137.43840742 C187.65468705 137.18877967 206.82071187 136.6557364 226 136 C226 145.9 226 155.8 226 166 C204.55 166 183.1 166 161 166 C161 170.95 161 175.9 161 181 C159.41554975 182.58445025 157.80065777 182.12728029 155.60375977 182.12939453 C154.66931534 182.13254669 153.73487091 182.13569885 152.77210999 182.13894653 C151.75547775 182.1369223 150.73884552 182.13489807 149.69140625 182.1328125 C148.13582253 182.13424759 148.13582253 182.13424759 146.54881287 182.13571167 C144.35049377 182.13639369 142.15217268 182.13453791 139.95385742 182.13037109 C136.58052051 182.12502854 133.20731708 182.1303126 129.83398438 182.13671875 C127.7031247 182.13605787 125.57226512 182.13477649 123.44140625 182.1328125 C121.91949425 182.13584885 121.91949425 182.13584885 120.36683655 182.13894653 C119.42923996 182.13579437 118.49164337 182.13264221 117.52563477 182.12939453 C116.69814224 182.12859894 115.87064972 182.12780334 115.01808167 182.12698364 C113 182 113 182 111 181 C111 176.05 111 171.1 111 166 C109.41356689 166.10997314 107.82713379 166.21994629 106.19262695 166.33325195 C55.99621354 169.51940463 55.99621354 169.51940463 45.34651184 160.2263031 C41.52975087 156.43367759 38.50799764 152.04819282 35.67602539 147.49633789 C33.59162664 144.39175272 31.20784563 142.32527211 28.32958984 139.97729492 C25.33229888 137.43327276 22.56696132 134.69368115 19.78515625 131.91796875 C19.23922821 131.37335495 18.69330017 130.82874115 18.13082886 130.2676239 C17.00959488 129.14633875 15.88941789 128.02399573 14.77026367 126.90063477 C13.04525287 125.17019863 11.31487572 123.4452551 9.58398438 121.72070312 C8.48405367 120.62011271 7.38443262 119.51921272 6.28515625 118.41796875 C5.51027611 117.64612495 5.51027611 117.64612495 4.71974182 116.85868835 C1.1503038 113.26554421 -0.125932 111.57575274 -0.12025452 106.54550171 C-0.12162918 105.60878128 -0.12300385 104.67206085 -0.12442017 103.70695496 C-0.12082489 102.67621353 -0.11722961 101.64547211 -0.11352539 100.58349609 C-0.11367142 99.50055771 -0.11381744 98.41761932 -0.1139679 97.30186462 C-0.11326915 93.70903547 -0.10547852 90.11625764 -0.09765625 86.5234375 C-0.09579193 84.03764881 -0.0943681 81.55185975 -0.09336853 79.06607056 C-0.08993565 73.18353603 -0.08204773 67.30102057 -0.07201904 61.41849387 C-0.05975492 54.06545754 -0.05437626 46.71241893 -0.04882812 39.359375 C-0.03809268 26.23957207 -0.02049672 13.11979132 0 0 Z " fill="#000000" transform="translate(6,8)"/>
<path d="M0 0 C21.63334029 -1.25411945 43.26050315 -2.18001561 64.92315197 -2.74604511 C74.99075264 -3.01626139 85.0352251 -3.38347154 95.08813477 -3.99829102 C169.89104348 -8.47397821 169.89104348 -8.47397821 197.93083191 16.1877594 C216.71416384 33.52038028 229.62836574 52.84955968 231.12020683 78.94440269 C231.36361272 88.86036953 230.64447957 98.63663822 229.69750977 108.49987793 C229.14831357 114.88589467 228.93039866 121.28419678 228.67578125 127.6875 C228.26789327 136.95626702 227.73720758 146.20117809 226.95458984 155.44628906 C226.87491974 156.40671112 226.79524963 157.36713318 226.71316528 158.35665894 C226.63519714 159.22382538 226.557229 160.09099182 226.47689819 160.98443604 C226.37502481 162.11868704 226.37502481 162.11868704 226.27109337 163.2758522 C226 165 226 165 225 166 C223.02416172 166.09985642 221.04476522 166.13080794 219.06640625 166.1328125 C217.86048828 166.13410156 216.65457031 166.13539063 215.41210938 166.13671875 C214.14173828 166.13285156 212.87136719 166.12898437 211.5625 166.125 C210.29599609 166.12886719 209.02949219 166.13273438 207.72460938 166.13671875 C206.51740234 166.13542969 205.31019531 166.13414062 204.06640625 166.1328125 C202.95209229 166.13168457 201.83777832 166.13055664 200.68969727 166.12939453 C198 166 198 166 196 165 C196.04298721 163.80270767 196.08597443 162.60541534 196.13026428 161.37184143 C196.52248505 149.97541937 196.77713165 138.58270445 196.90415287 127.18016148 C196.97367509 121.31947141 197.08814411 115.46753824 197.31323242 109.6105957 C199.48150148 80.29554056 199.48150148 80.29554056 187.96463299 54.61178112 C183.40476384 49.86633696 178.33464907 45.85483674 172.95895386 42.0788269 C168.64259058 39.04634565 164.03302701 35.65150507 160.797616 31.43183231 C158.13243605 29.30897027 156.02330426 29.61762534 152.64767456 29.60800171 C152.00061558 29.60206045 151.3535566 29.59611919 150.68688977 29.58999789 C148.5148815 29.57366406 146.34344341 29.57866029 144.17138672 29.58349609 C142.6159296 29.57611852 141.06047829 29.56741428 139.5050354 29.55747986 C135.27797793 29.53412019 131.0510672 29.52900542 126.82395315 29.52682066 C122.40676519 29.52116917 117.98967353 29.49790319 113.57254028 29.47622681 C105.20505138 29.43767279 96.83758995 29.41347239 88.47003472 29.39510214 C73.47305783 29.36171008 58.47616305 29.30408081 43.47928441 29.24111044 C38.21177856 29.21956274 32.94430136 29.20432522 27.67676139 29.19427085 C24.40771458 29.18727528 21.13868836 29.17639853 17.86965561 29.16462898 C16.3478233 29.1600538 14.82598466 29.15721952 13.30414581 29.15620613 C11.23550702 29.15464497 9.16697557 29.14709421 7.09835815 29.13803101 C5.93803007 29.13547491 4.77770199 29.13291882 3.58221245 29.13028526 C1 29 1 29 0 28 C-0.08767112 25.92737924 -0.10695873 23.85179706 -0.09765625 21.77734375 C-0.09443359 20.51728516 -0.09121094 19.25722656 -0.08789062 17.95898438 C-0.07953403 16.61848891 -0.07106907 15.27799412 -0.0625 13.9375 C-0.0574866 12.59310058 -0.05292342 11.2486994 -0.04882812 9.90429688 C-0.03699488 6.60282059 -0.02050971 3.30143197 0 0 Z " fill="#000000" transform="translate(52,8)"/>
<path d="M0 0 C13.7433768 -0.25551165 27.48618347 -0.45064422 41.23145676 -0.56993389 C47.61495952 -0.62720499 53.99683072 -0.70481015 60.37939453 -0.82983398 C66.54575742 -0.949859 72.71055701 -1.01523044 78.87799835 -1.04364967 C81.22400766 -1.06388608 83.56993679 -1.10340565 85.91527557 -1.16303062 C106.22805259 -1.65863069 106.22805259 -1.65863069 112.5402422 3.67630386 C114.86345974 5.99099454 116.91196443 8.47050651 119 11 C120.43903263 12.19630504 121.90967437 13.35647551 123.42016602 14.46118164 C129.51546096 19.35497576 134.05829402 23.78849485 135.19091797 31.78857422 C135.65113058 38.36101142 135.3156832 44.86948056 134.9375 51.4375 C134.8621074 53.72959717 134.79369294 56.021935 134.73242188 58.31445312 C134.56862314 63.8816318 134.3190161 69.43966748 134 75 C129.8882744 75.02465746 125.77657722 75.04283959 121.66479492 75.05493164 C120.26504772 75.0599708 118.8653058 75.06680216 117.46557617 75.07543945 C115.45754223 75.0875232 113.44947043 75.09269807 111.44140625 75.09765625 C110.23170166 75.10289307 109.02199707 75.10812988 107.77563477 75.11352539 C105 75 105 75 104 74 C103.93880593 71.50171861 103.93636669 69.02496186 103.96484375 66.52734375 C103.96112701 64.97199861 103.95519419 63.4166575 103.94726562 61.86132812 C103.93675404 59.40723855 103.93720821 56.95603913 103.97583008 54.50219727 C104.0092256 52.13399818 103.99123501 49.77054121 103.96484375 47.40234375 C103.98739731 46.68118881 104.00995087 45.96003387 104.03318787 45.21702576 C103.93477272 40.98046022 102.80479841 37.94472994 100.27148438 34.53515625 C93.2350281 28.21811187 82.53246841 29.9330513 73.69140625 30.03515625 C71.59772085 30.03017315 69.50404124 30.02152785 67.41038513 30.00938416 C61.91786987 29.98666417 56.42655711 30.01064994 50.93414307 30.04541016 C44.23908577 30.07934539 37.54401401 30.05943039 30.84891415 30.04637051 C25.64574098 30.03707022 20.44301843 30.03624742 15.23988342 30.06056213 C13.81199997 30.06495049 13.81199997 30.06495049 12.35527039 30.06942749 C10.57046769 30.07525242 8.78567209 30.08492147 7.00091553 30.09901428 C5.00034324 30.10355602 2.99975308 30.05742601 1 30 C0 29 0 29 -0.11352539 26.22436523 C-0.10828857 25.01466064 -0.10305176 23.80495605 -0.09765625 22.55859375 C-0.09443359 21.25341797 -0.09121094 19.94824219 -0.08789062 18.60351562 C-0.07953401 17.2148431 -0.07106905 15.82617123 -0.0625 14.4375 C-0.05748666 13.04492344 -0.05292347 11.65234519 -0.04882812 10.25976562 C-0.03699434 6.8398013 -0.0205088 3.41992156 0 0 Z " fill="#000000" transform="translate(98,53)"/>
<path d="M0 0 C9.9 0 19.8 0 30 0 C29.95617187 2.41054688 29.91234375 4.82109375 29.8671875 7.3046875 C29.85877653 9.67144056 29.86755753 12.03756008 29.87792969 14.40429688 C29.87599765 16.0336485 29.85653171 17.66308663 29.81835938 19.29199219 C29.76621903 21.65279097 29.77977801 24.00608544 29.8046875 26.3671875 C29.77494843 27.08115692 29.74520935 27.79512634 29.71456909 28.5307312 C29.84960785 33.43709229 31.7058464 36.65244753 34.7421875 40.46484375 C42.55350825 47.63662196 52.28807972 46.35103398 62.3203125 46.1953125 C64.39111559 46.19910409 66.46191486 46.20730073 68.53268433 46.21969604 C73.95519234 46.24042186 79.37567371 46.20170504 84.7979126 46.15020752 C90.34186008 46.10820407 95.88563256 46.12296361 101.4296875 46.1328125 C112.28721757 46.14380194 123.14280999 46.08668541 134 46 C134 55.57 134 65.14 134 75 C120.51569818 75.61504145 107.04098902 76.10800956 93.54572582 76.39892864 C87.27583708 76.53871132 81.01618754 76.72742403 74.75219727 77.03686523 C28.28034718 79.26993099 28.28034718 79.26993099 13.65518188 66.5239563 C4.51923505 57.69328423 -1.94263885 47.86114773 -2.63671875 34.86328125 C-2.56991257 30.6393152 -2.15389774 26.50812407 -1.6875 22.3125 C-1.55146902 20.12381521 -1.42838012 17.93428696 -1.31835938 15.74414062 C-1.04891532 10.45704956 -0.52588632 5.29132536 0 0 Z " fill="#000000" transform="translate(52,53)"/>
<path d="M0 0 C3.54416535 0.54399173 5.89556203 1.32471261 8.78515625 3.44140625 C9.47424072 3.93842041 10.1633252 4.43543457 10.87329102 4.94750977 C11.95694946 5.74692993 11.95694946 5.74692993 13.0625 6.5625 C14.59287912 7.6678734 16.12413222 8.77203776 17.65625 9.875 C18.77386719 10.68324219 18.77386719 10.68324219 19.9140625 11.5078125 C22.58997255 13.42204029 25.31585269 15.25152375 28.0625 17.0625 C28.9294751 17.65901367 29.7964502 18.25552734 30.68969727 18.87011719 C33.1397971 20.44653661 35.45997945 21.76243232 38.04467773 23.06347656 C48.80304504 28.85491135 48.80304504 28.85491135 50.84597778 34.22286987 C51.99078462 40.36245118 51.46280845 46.50016582 51 52.6875 C50.91961159 54.56414796 50.84663026 56.44112862 50.78125 58.31835938 C50.60612397 62.88721727 50.33106501 67.43989789 50 72 C45.16230128 71.20784417 41.98491168 69.20080742 38.0625 66.375 C36.64904567 65.37934441 35.23494505 64.38460586 33.8203125 63.390625 C33.05493164 62.84986328 32.28955078 62.30910156 31.50097656 61.75195312 C26.84784906 58.49240188 22.13820159 55.31536503 17.4375 52.125 C15.60223472 50.87853106 13.76757197 49.63117437 11.93359375 48.3828125 C11.15040771 47.85059082 10.36722168 47.31836914 9.56030273 46.77001953 C8.71540283 46.18591309 7.87050293 45.60180664 7 45 C6.08886192 44.50573265 6.08886192 44.50573265 5.15931702 44.0014801 C0.35670682 41.16844527 0.35670682 41.16844527 -0.60643005 38.0135498 C-0.8108976 35.56636974 -0.78798317 33.21519741 -0.68359375 30.76171875 C-0.67368912 29.88095169 -0.66378448 29.00018463 -0.65357971 28.09272766 C-0.61450214 25.2892655 -0.52670142 22.48977093 -0.4375 19.6875 C-0.40237717 17.78325982 -0.37043985 15.87895804 -0.34179688 13.97460938 C-0.26476274 9.31488576 -0.14403277 4.65811461 0 0 Z " fill="#000000" transform="translate(117,284)"/>
<path d="M0 0 C3.54416535 0.54399173 5.89556203 1.32471261 8.78515625 3.44140625 C9.47424072 3.93842041 10.1633252 4.43543457 10.87329102 4.94750977 C11.95694946 5.74692993 11.95694946 5.74692993 13.0625 6.5625 C14.59287912 7.6678734 16.12413222 8.77203776 17.65625 9.875 C18.77386719 10.68324219 18.77386719 10.68324219 19.9140625 11.5078125 C22.58997255 13.42204029 25.31585269 15.25152375 28.0625 17.0625 C28.9294751 17.65901367 29.7964502 18.25552734 30.68969727 18.87011719 C33.1397971 20.44653661 35.45997945 21.76243232 38.04467773 23.06347656 C48.80304504 28.85491135 48.80304504 28.85491135 50.84597778 34.22286987 C51.99078462 40.36245118 51.46280845 46.50016582 51 52.6875 C50.91961159 54.56414796 50.84663026 56.44112862 50.78125 58.31835938 C50.60612397 62.88721727 50.33106501 67.43989789 50 72 C45.16230128 71.20784417 41.98491168 69.20080742 38.0625 66.375 C36.64904567 65.37934441 35.23494505 64.38460586 33.8203125 63.390625 C33.05493164 62.84986328 32.28955078 62.30910156 31.50097656 61.75195312 C26.84784906 58.49240188 22.13820159 55.31536503 17.4375 52.125 C15.60223472 50.87853106 13.76757197 49.63117437 11.93359375 48.3828125 C11.15040771 47.85059082 10.36722168 47.31836914 9.56030273 46.77001953 C8.71540283 46.18591309 7.87050293 45.60180664 7 45 C6.08886192 44.50573265 6.08886192 44.50573265 5.15931702 44.0014801 C0.35670682 41.16844527 0.35670682 41.16844527 -0.60643005 38.0135498 C-0.8108976 35.56636974 -0.78798317 33.21519741 -0.68359375 30.76171875 C-0.67368912 29.88095169 -0.66378448 29.00018463 -0.65357971 28.09272766 C-0.61450214 25.2892655 -0.52670142 22.48977093 -0.4375 19.6875 C-0.40237717 17.78325982 -0.37043985 15.87895804 -0.34179688 13.97460938 C-0.26476274 9.31488576 -0.14403277 4.65811461 0 0 Z " fill="#000000" transform="translate(117,224)"/>
<path d="M0 0 C22.44 0 44.88 0 68 0 C65.74890916 6.75327251 65.74890916 6.75327251 64.08984375 9.61328125 C63.73986328 10.22107422 63.38988281 10.82886719 63.02929688 11.45507812 C62.66900391 12.06802734 62.30871094 12.68097656 61.9375 13.3125 C61.57333984 13.94478516 61.20917969 14.57707031 60.83398438 15.22851562 C58.16003667 19.83996333 58.16003667 19.83996333 57 21 C55.62683626 21.14455655 54.24655691 21.22253777 52.86669922 21.2722168 C51.98843475 21.30441818 51.11017029 21.33661957 50.20529175 21.36979675 C46.16482141 21.48042964 42.12451561 21.56290873 38.08300781 21.62475586 C35.95459598 21.66638461 33.82647302 21.72772255 31.69921875 21.80932617 C14.04940205 22.47559027 14.04940205 22.47559027 9.11206055 18.9206543 C7.27140737 16.32932611 6.09606011 13.97408634 5 11 C4.41347656 9.96746094 3.82695313 8.93492187 3.22265625 7.87109375 C2.83980469 7.06800781 2.45695312 6.26492188 2.0625 5.4375 C1.66160156 4.61121094 1.26070313 3.78492188 0.84765625 2.93359375 C0 1 0 1 0 0 Z " fill="#000000" transform="translate(108,390)"/>
<path d="M0 0 C15.18 0 30.36 0 46 0 C46 10.56 46 21.12 46 32 C41.04465052 31.0089301 38.49877817 29.49546419 34.625 26.5625 C33.38309423 25.64758581 32.13954832 24.73489456 30.89453125 23.82421875 C30.25467285 23.3554834 29.61481445 22.88674805 28.95556641 22.40380859 C25.79989362 20.13850041 22.55796517 18.00868531 19.3125 15.875 C14.70921845 12.82681667 10.13201666 9.75181192 5.625 6.5625 C4.75101562 5.94503906 3.87703125 5.32757813 2.9765625 4.69140625 C1 3 1 3 0 0 Z " fill="#000000" transform="translate(121,204)"/>
<path d="M0 0 C5.14436707 1.67038214 9.23799605 4.74410461 13.625 7.8125 C15.31228362 8.98208305 16.99979061 10.15134392 18.6875 11.3203125 C19.55632812 11.92391602 20.42515625 12.52751953 21.3203125 13.14941406 C24.01468491 15.01014136 26.72313313 16.8482721 29.4375 18.6796875 C30.30681152 19.2677417 31.17612305 19.8557959 32.07177734 20.46166992 C33.75236686 21.59765073 35.43493695 22.73070786 37.11962891 23.8605957 C37.87679199 24.37452881 38.63395508 24.88846191 39.4140625 25.41796875 C40.0838916 25.86938232 40.7537207 26.3207959 41.44384766 26.78588867 C43 28 43 28 44 30 C43.67 30.66 43.34 31.32 43 32 C36.8944529 32.02464513 30.78893449 32.04283371 24.68334961 32.05493164 C22.60456844 32.05997288 20.52579084 32.06680574 18.44702148 32.07543945 C15.46597414 32.08751422 12.48497351 32.09323024 9.50390625 32.09765625 C8.10078941 32.10539818 8.10078941 32.10539818 6.66932678 32.11329651 C5.37810158 32.11340981 5.37810158 32.11340981 4.06079102 32.11352539 C3.29912125 32.115746 2.53745148 32.11796661 1.75270081 32.12025452 C0 32 0 32 -1 31 C-1.10012401 28.79349344 -1.1308118 26.58377614 -1.1328125 24.375 C-1.13376923 23.71290527 -1.13472595 23.05081055 -1.13571167 22.36865234 C-1.13639326 20.96647039 -1.13454042 19.5642853 -1.13037109 18.16210938 C-1.12502246 16.00904287 -1.1303167 13.85618498 -1.13671875 11.703125 C-1.13605796 10.34374954 -1.13477679 8.9843742 -1.1328125 7.625 C-1.13168457 6.37976563 -1.13055664 5.13453125 -1.12939453 3.8515625 C-1 1 -1 1 0 0 Z " fill="#000000" transform="translate(118,344)"/>
<path d="M0 0 C4.00304487 0.54012049 5.79179089 2.45565916 8.5546875 5.296875 C9.84826172 6.61171875 9.84826172 6.61171875 11.16796875 7.953125 C12.06128906 8.87609375 12.95460938 9.7990625 13.875 10.75 C21.60627596 18.73660419 21.60627596 18.73660419 30 26 C29.67 27.32 29.34 28.64 29 30 C25.03069011 30.02465881 21.06140966 30.04284023 17.09204102 30.05493164 C15.74079614 30.05997057 14.38955674 30.06680177 13.03833008 30.07543945 C11.09979566 30.08752419 9.161222 30.09269828 7.22265625 30.09765625 C5.47094116 30.10551147 5.47094116 30.10551147 3.68383789 30.11352539 C1 30 1 30 0 29 C-0.08775605 26.85441173 -0.10695219 24.70595579 -0.09765625 22.55859375 C-0.09443359 21.25341797 -0.09121094 19.94824219 -0.08789062 18.60351562 C-0.07953401 17.2148431 -0.07106905 15.82617123 -0.0625 14.4375 C-0.05748666 13.04492344 -0.05292347 11.65234519 -0.04882812 10.25976562 C-0.03699434 6.8398013 -0.0205088 3.41992156 0 0 Z " fill="#000000" transform="translate(6,144)"/>
<path d="M0 0 C9.9 0 19.8 0 30 0 C30 9.57 30 19.14 30 29 C25.15648886 27.06259555 22.57678704 25.00253124 19.04296875 21.40625 C18.49514236 20.85892212 17.94731598 20.31159424 17.38288879 19.74768066 C16.23219772 18.59465749 15.08517775 17.43796028 13.94165039 16.27783203 C12.18471857 14.49718102 10.41471079 12.73035391 8.64257812 10.96484375 C7.52524513 9.84193785 6.40868099 8.71826628 5.29296875 7.59375 C4.76180954 7.0635022 4.23065033 6.53325439 3.68339539 5.98693848 C0 2.23105837 0 2.23105837 0 0 Z " fill="#000000" transform="translate(248,8)"/>
</svg>
