<svg width="34" height="34" viewBox="0 0 34 34" fill="none" xmlns="http://www.w3.org/2000/svg">
<g filter="url(#filter0_i_5240_90741)">
<path d="M0 6C0 2.68629 2.68629 0 6 0H28C31.3137 0 34 2.68629 34 6V28C34 31.3137 31.3137 34 28 34H6C2.68629 34 0 31.3137 0 28V6Z" fill="url(#paint0_linear_5240_90741)"/>
</g>
<path d="M0.25 6C0.25 2.82436 2.82436 0.25 6 0.25H28C31.1756 0.25 33.75 2.82436 33.75 6V28C33.75 31.1756 31.1756 33.75 28 33.75H6C2.82436 33.75 0.25 31.1756 0.25 28V6Z" stroke="url(#paint1_linear_5240_90741)" stroke-width="0.5"/>
<path d="M24.5876 16.4495L12.4629 8.15696C12.0859 7.87874 11.0808 7.87874 11 8.92878V25.5139C11.0897 26.5639 12.1129 26.5819 12.4629 26.2857L24.5876 17.9932C24.9017 17.8047 25.3325 17.0329 24.5876 16.4495Z" stroke="white" stroke-width="2"/>
<defs>
<filter id="filter0_i_5240_90741" x="0" y="0" width="36" height="36" filterUnits="userSpaceOnUse" color-interpolation-filters="sRGB">
<feFlood flood-opacity="0" result="BackgroundImageFix"/>
<feBlend mode="normal" in="SourceGraphic" in2="BackgroundImageFix" result="shape"/>
<feColorMatrix in="SourceAlpha" type="matrix" values="0 0 0 0 0 0 0 0 0 0 0 0 0 0 0 0 0 0 127 0" result="hardAlpha"/>
<feOffset dx="2" dy="2"/>
<feGaussianBlur stdDeviation="3"/>
<feComposite in2="hardAlpha" operator="arithmetic" k2="-1" k3="1"/>
<feColorMatrix type="matrix" values="0 0 0 0 0 0 0 0 0 0 0 0 0 0 0 0 0 0 0.12 0"/>
<feBlend mode="normal" in2="shape" result="effect1_innerShadow_5240_90741"/>
</filter>
<linearGradient id="paint0_linear_5240_90741" x1="17" y1="0" x2="17" y2="34" gradientUnits="userSpaceOnUse">
<stop stop-color="#858585"/>
<stop offset="1" stop-color="#343434"/>
</linearGradient>
<linearGradient id="paint1_linear_5240_90741" x1="17" y1="0" x2="17" y2="34" gradientUnits="userSpaceOnUse">
<stop stop-color="#CDCDCD"/>
<stop offset="1" stop-color="#101010"/>
</linearGradient>
</defs>
</svg>
